# 3ds Max Wavefront OBJ Exporter v0.99 - (c)2007 guruware
# File Created: 30.10.2021 15:49:40

mtllib key.mtl

#
# object Cylinder001
#

v  0.0000 0.0307 -0.0158
v  0.0000 0.0117 -0.0255
v  0.0000 -0.0117 -0.0255
v  0.0000 -0.0307 -0.0158
v  0.0000 -0.0379 -0.0000
v  -0.0000 -0.0307 0.0158
v  -0.0000 -0.0117 0.0255
v  -0.0000 0.0117 0.0255
v  -0.0000 0.0307 0.0158
v  0.0000 0.0379 -0.0000
v  0.0615 0.0307 0.0158
v  0.0615 0.0379 0.0000
v  0.0615 0.0117 0.0255
v  0.0615 -0.0117 0.0255
v  0.0615 -0.0307 0.0158
v  0.0615 -0.0379 0.0000
v  0.0615 -0.0307 -0.0158
v  0.0615 -0.0117 -0.0255
v  0.0615 0.0117 -0.0255
v  0.0615 0.0307 -0.0158
v  0.1231 0.0307 0.0158
v  0.1231 0.0379 0.0000
v  0.1231 0.0117 0.0255
v  0.1231 -0.0117 0.0255
v  0.1231 -0.0307 0.0158
v  0.1231 -0.0379 0.0000
v  0.1231 -0.0307 -0.0158
v  0.1231 -0.0117 -0.0255
v  0.1231 0.0117 -0.0255
v  0.1231 0.0307 -0.0158
v  0.1846 0.0307 0.0158
v  0.1846 0.0379 0.0000
v  0.1846 0.0117 0.0255
v  0.1231 0.0117 0.0762
v  0.1231 -0.0117 0.0762
v  0.1846 -0.0117 0.0762
v  0.1846 0.0117 0.0762
v  0.1846 -0.0307 0.0158
v  0.1846 -0.0117 0.0255
v  0.1846 -0.0379 0.0000
v  0.1846 -0.0307 -0.0158
v  0.1846 -0.0117 -0.0255
v  0.1846 0.0117 -0.0255
v  0.1846 0.0307 -0.0158
v  0.2462 0.0307 0.0158
v  0.2462 0.0379 0.0000
v  0.2462 0.0117 0.0255
v  0.2462 -0.0117 0.0255
v  0.2462 -0.0307 0.0158
v  0.2462 -0.0379 0.0000
v  0.2462 -0.0307 -0.0158
v  0.2462 -0.0117 -0.0255
v  0.2462 0.0117 -0.0255
v  0.2462 0.0307 -0.0158
v  0.3077 0.0307 0.0158
v  0.3077 0.0379 0.0000
v  0.3077 0.0117 0.0255
v  0.2462 0.0117 0.0762
v  0.2462 -0.0117 0.0762
v  0.3077 -0.0117 0.0762
v  0.3077 0.0117 0.0762
v  0.3077 -0.0307 0.0158
v  0.3077 -0.0117 0.0255
v  0.3077 -0.0379 0.0000
v  0.3077 -0.0307 -0.0158
v  0.3077 -0.0117 -0.0255
v  0.3077 0.0117 -0.0255
v  0.3077 0.0307 -0.0158
v  -0.0634 0.0370 -0.0882
v  -0.0634 -0.0035 -0.0927
v  -0.0897 -0.0035 -0.0882
v  -0.0884 0.0370 -0.0838
v  -0.1134 -0.0035 -0.0750
v  -0.1110 0.0370 -0.0713
v  -0.1323 -0.0035 -0.0545
v  -0.1289 0.0370 -0.0518
v  -0.1444 -0.0035 -0.0286
v  -0.1404 0.0370 -0.0272
v  -0.1485 -0.0035 0.0000
v  -0.1444 0.0370 0.0000
v  -0.1444 -0.0035 0.0286
v  -0.1404 0.0370 0.0272
v  -0.1323 -0.0035 0.0545
v  -0.1289 0.0370 0.0518
v  -0.1134 -0.0035 0.0750
v  -0.1110 0.0370 0.0713
v  -0.0897 -0.0035 0.0882
v  -0.0884 0.0370 0.0838
v  -0.0634 -0.0035 0.0927
v  -0.0634 0.0370 0.0882
v  -0.0370 -0.0035 0.0882
v  -0.0383 0.0370 0.0838
v  -0.0133 -0.0035 0.0750
v  -0.0157 0.0370 0.0713
v  0.0056 -0.0035 0.0545
v  0.0022 0.0370 0.0518
v  0.0177 -0.0035 0.0286
v  0.0137 0.0370 0.0272
v  0.0218 -0.0035 -0.0000
v  0.0177 0.0370 -0.0000
v  0.0177 -0.0035 -0.0286
v  0.0137 0.0370 -0.0272
v  0.0056 -0.0035 -0.0545
v  0.0022 0.0370 -0.0518
v  -0.0133 -0.0035 -0.0750
v  -0.0157 0.0370 -0.0713
v  -0.0370 -0.0035 -0.0882
v  -0.0383 0.0370 -0.0838
v  -0.0634 -0.0440 -0.0882
v  -0.0884 -0.0440 -0.0838
v  -0.1110 -0.0440 -0.0713
v  -0.1289 -0.0440 -0.0518
v  -0.1404 -0.0440 -0.0272
v  -0.1444 -0.0440 0.0000
v  -0.1404 -0.0440 0.0272
v  -0.1289 -0.0440 0.0518
v  -0.1110 -0.0440 0.0713
v  -0.0884 -0.0440 0.0838
v  -0.0634 -0.0440 0.0882
v  -0.0383 -0.0440 0.0838
v  -0.0157 -0.0440 0.0713
v  0.0022 -0.0440 0.0518
v  0.0137 -0.0440 0.0272
v  0.0177 -0.0440 -0.0000
v  0.0137 -0.0440 -0.0272
v  0.0022 -0.0440 -0.0518
v  -0.0157 -0.0440 -0.0713
v  -0.0383 -0.0440 -0.0838
# 128 vertices

vn -0.6437 0.6191 -0.4498
vn -0.6437 0.2365 -0.7278
vn -0.6437 -0.2365 -0.7278
vn -0.6438 -0.6191 -0.4498
vn -0.6438 -0.7652 -0.0000
vn -0.6438 -0.6191 0.4498
vn -0.6437 -0.2365 0.7278
vn -0.6437 0.2365 0.7278
vn -0.6437 0.6191 0.4498
vn -0.6437 0.7653 -0.0000
vn -0.0000 0.8090 0.5878
vn -0.0000 1.0000 0.0000
vn -0.0000 0.3090 0.9511
vn -0.0000 -0.3090 0.9511
vn -0.0000 -0.8090 0.5878
vn 0.0000 -1.0000 -0.0000
vn 0.0000 -0.8090 -0.5878
vn 0.0000 -0.3090 -0.9511
vn 0.0000 0.3090 -0.9511
vn 0.0000 0.8090 -0.5878
vn -0.2819 0.6132 0.7379
vn -0.2819 -0.6132 0.7379
vn 0.2819 0.6132 0.7379
vn -0.5774 0.5774 0.5774
vn -0.5774 -0.5774 0.5774
vn 0.5774 -0.5774 0.5774
vn 0.5774 0.5774 0.5774
vn 0.2819 -0.6132 0.7379
vn 0.6437 0.6191 0.4498
vn 0.6437 0.7653 0.0000
vn 0.8249 0.5037 0.2567
vn 0.6438 -0.6191 0.4498
vn 0.8249 -0.5037 0.2567
vn 0.6438 -0.7652 0.0000
vn 0.6438 -0.6191 -0.4498
vn 0.6437 -0.2365 -0.7278
vn 0.6437 0.2365 -0.7278
vn 0.6437 0.6191 -0.4498
vn -0.0000 0.6734 -0.7393
vn -0.0000 -0.0000 -1.0000
vn -0.6814 0.0000 -0.7319
vn -0.5078 0.6932 -0.5114
vn -0.9142 -0.0000 -0.4052
vn -0.6499 0.7083 -0.2756
vn -0.9751 0.0000 -0.2218
vn -0.6856 0.7122 -0.1507
vn -0.9950 0.0000 -0.1002
vn -0.6977 0.7132 -0.0682
vn -1.0000 -0.0000 -0.0000
vn -0.7008 0.7134 -0.0000
vn -0.9950 0.0000 0.1002
vn -0.6977 0.7132 0.0682
vn -0.9751 0.0000 0.2218
vn -0.6856 0.7122 0.1507
vn -0.9142 0.0000 0.4052
vn -0.6499 0.7083 0.2756
vn -0.6814 -0.0000 0.7319
vn -0.5078 0.6932 0.5114
vn 0.0000 -0.0000 1.0000
vn 0.0000 0.6734 0.7393
vn 0.6814 -0.0000 0.7319
vn 0.5079 0.6932 0.5114
vn 0.9142 -0.0000 0.4052
vn 0.6499 0.7083 0.2756
vn 0.9751 -0.0000 0.2218
vn 0.6856 0.7122 0.1507
vn 0.9950 -0.0000 0.1002
vn 0.6977 0.7132 0.0682
vn 1.0000 -0.0000 -0.0000
vn 0.7008 0.7134 -0.0000
vn 0.9950 -0.0000 -0.1002
vn 0.6977 0.7132 -0.0682
vn 0.9751 -0.0000 -0.2218
vn 0.6856 0.7122 -0.1507
vn 0.9142 -0.0000 -0.4052
vn 0.6499 0.7083 -0.2756
vn 0.6814 -0.0000 -0.7319
vn 0.5078 0.6932 -0.5114
vn -0.0000 -0.6734 -0.7393
vn -0.5078 -0.6932 -0.5114
vn -0.6499 -0.7083 -0.2756
vn -0.6856 -0.7122 -0.1507
vn -0.6977 -0.7132 -0.0682
vn -0.7008 -0.7134 0.0000
vn -0.6977 -0.7132 0.0682
vn -0.6856 -0.7122 0.1507
vn -0.6499 -0.7083 0.2756
vn -0.5078 -0.6932 0.5114
vn 0.0000 -0.6734 0.7393
vn 0.5079 -0.6932 0.5114
vn 0.6499 -0.7083 0.2756
vn 0.6856 -0.7122 0.1507
vn 0.6977 -0.7132 0.0682
vn 0.7008 -0.7134 -0.0000
vn 0.6977 -0.7132 -0.0682
vn 0.6856 -0.7122 -0.1507
vn 0.6499 -0.7083 -0.2756
vn 0.5078 -0.6932 -0.5114
# 98 vertex normals

vt 0.0601 0.0000 0.6180
vt -0.0500 0.0000 1.0000
vt 0.0500 0.0000 1.0000
vt 0.1500 0.0000 1.0000
vt 0.2500 0.0000 1.0000
vt 0.3500 0.0000 1.0000
vt 0.4500 0.0000 1.0000
vt 0.5500 0.0000 1.0000
vt 0.6500 0.0000 1.0000
vt 0.7500 0.0000 1.0000
vt 0.6500 0.2000 1.0000
vt 0.7500 0.2000 1.0000
vt 0.5500 0.2000 1.0000
vt 0.4500 0.2000 1.0000
vt 0.3500 0.2000 1.0000
vt 0.2500 0.2000 1.0000
vt 0.1500 0.2000 1.0000
vt 0.0500 0.2000 1.0000
vt -0.0500 0.2000 1.0000
vt 0.9500 0.0000 1.0000
vt 0.8500 0.0000 1.0000
vt 0.8500 0.2000 1.0000
vt 0.9500 0.2000 1.0000
vt 0.6500 0.4000 1.0000
vt 0.7500 0.4000 1.0000
vt 0.5500 0.4000 1.0000
vt 0.4500 0.4000 1.0000
vt 0.3500 0.4000 1.0000
vt 0.2500 0.4000 1.0000
vt 0.1500 0.4000 1.0000
vt 0.0500 0.4000 1.0000
vt -0.0500 0.4000 1.0000
vt 0.8500 0.4000 1.0000
vt 0.9500 0.4000 1.0000
vt 0.6500 0.6000 1.0000
vt 0.7500 0.6000 1.0000
vt 0.5500 0.6000 1.0000
vt 0.4500 0.6000 1.0000
vt 0.3500 0.6000 1.0000
vt 0.2500 0.6000 1.0000
vt 0.1500 0.6000 1.0000
vt 0.0500 0.6000 1.0000
vt -0.0500 0.6000 1.0000
vt 0.8500 0.6000 1.0000
vt 0.9500 0.6000 1.0000
vt 0.6500 0.8000 1.0000
vt 0.7500 0.8000 1.0000
vt 0.5500 0.8000 1.0000
vt 0.4500 0.8000 1.0000
vt 0.3500 0.8000 1.0000
vt 0.2500 0.8000 1.0000
vt 0.1500 0.8000 1.0000
vt 0.0500 0.8000 1.0000
vt -0.0500 0.8000 1.0000
vt 0.8500 0.8000 1.0000
vt 0.9500 0.8000 1.0000
vt 0.6500 1.0000 1.0000
vt 0.7500 1.0000 1.0000
vt 0.5500 1.0000 1.0000
vt 0.4500 1.0000 1.0000
vt 0.3500 1.0000 1.0000
vt 0.2500 1.0000 1.0000
vt 0.1500 1.0000 1.0000
vt 0.0500 1.0000 1.0000
vt -0.0500 1.0000 1.0000
vt 0.8500 1.0000 1.0000
vt 0.9500 1.0000 1.0000
vt 0.0000 0.6000 0.0000
vt 0.0000 0.5000 0.0000
vt 0.0500 0.5000 0.0000
vt 0.0500 0.6000 0.0000
vt 0.1000 0.5000 0.0000
vt 0.1000 0.6000 0.0000
vt 0.1500 0.5000 0.0000
vt 0.1500 0.6000 0.0000
vt 0.2000 0.5000 0.0000
vt 0.2000 0.6000 0.0000
vt 0.2500 0.5000 0.0000
vt 0.2500 0.6000 0.0000
vt 0.3000 0.5000 0.0000
vt 0.3000 0.6000 0.0000
vt 0.3500 0.5000 0.0000
vt 0.3500 0.6000 0.0000
vt 0.4000 0.5000 0.0000
vt 0.4000 0.6000 0.0000
vt 0.4500 0.5000 0.0000
vt 0.4500 0.6000 0.0000
vt 0.5000 0.5000 0.0000
vt 0.5000 0.6000 0.0000
vt 0.5500 0.5000 0.0000
vt 0.5500 0.6000 0.0000
vt 0.6000 0.5000 0.0000
vt 0.6000 0.6000 0.0000
vt 0.6500 0.5000 0.0000
vt 0.6500 0.6000 0.0000
vt 0.7000 0.5000 0.0000
vt 0.7000 0.6000 0.0000
vt 0.7500 0.5000 0.0000
vt 0.7500 0.6000 0.0000
vt 0.8000 0.5000 0.0000
vt 0.8000 0.6000 0.0000
vt 0.8500 0.5000 0.0000
vt 0.8500 0.6000 0.0000
vt 0.9000 0.5000 0.0000
vt 0.9000 0.6000 0.0000
vt 0.9500 0.5000 0.0000
vt 0.9500 0.6000 0.0000
vt 1.0000 0.5000 0.0000
vt 1.0000 0.6000 0.0000
vt 0.0000 0.4000 0.0000
vt 0.0500 0.4000 0.0000
vt 0.1000 0.4000 0.0000
vt 0.1500 0.4000 0.0000
vt 0.2000 0.4000 0.0000
vt 0.2500 0.4000 0.0000
vt 0.3000 0.4000 0.0000
vt 0.3500 0.4000 0.0000
vt 0.4000 0.4000 0.0000
vt 0.4500 0.4000 0.0000
vt 0.5000 0.4000 0.0000
vt 0.5500 0.4000 0.0000
vt 0.6000 0.4000 0.0000
vt 0.6500 0.4000 0.0000
vt 0.7000 0.4000 0.0000
vt 0.7500 0.4000 0.0000
vt 0.8000 0.4000 0.0000
vt 0.8500 0.4000 0.0000
vt 0.9000 0.4000 0.0000
vt 0.9500 0.4000 0.0000
vt 1.0000 0.4000 0.0000
# 130 texture coords

o Cylinder001
g Cylinder001
usemtl wire_255255000
s 1
f 1/1/1 2/2/2 3/3/3 4/4/4 5/5/5 6/6/6 7/7/7 8/8/8 9/9/9 10/10/10 
s 8
f 10/10/10 9/9/9 11/11/11 12/12/12 
f 9/9/9 8/8/8 13/13/13 11/11/11 
f 8/8/8 7/7/7 14/14/14 13/13/13 
f 7/7/7 6/6/6 15/15/15 14/14/14 
f 6/6/6 5/5/5 16/16/16 15/15/15 
f 5/5/5 4/4/4 17/17/17 16/16/16 
f 4/4/4 3/3/3 18/18/18 17/17/17 
f 3/3/3 2/2/2 19/19/19 18/18/18 
f 2/20/2 1/21/1 20/22/20 19/23/19 
f 1/21/1 10/10/10 12/12/12 20/22/20 
f 12/12/12 11/11/11 21/24/11 22/25/12 
f 11/11/11 13/13/13 23/26/21 21/24/11 
f 13/13/13 14/14/14 24/27/22 23/26/21 
f 14/14/14 15/15/15 25/28/15 24/27/22 
f 15/15/15 16/16/16 26/29/16 25/28/15 
f 16/16/16 17/17/17 27/30/17 26/29/16 
f 17/17/17 18/18/18 28/31/18 27/30/17 
f 18/18/18 19/19/19 29/32/19 28/31/18 
f 19/23/19 20/22/20 30/33/20 29/34/19 
f 20/22/20 12/12/12 22/25/12 30/33/20 
f 22/25/12 21/24/11 31/35/11 32/36/12 
f 21/24/11 23/26/21 33/37/23 31/35/11 
f 34/26/24 35/27/25 36/38/26 37/37/27 
f 24/27/22 25/28/15 38/39/15 39/38/28 
f 25/28/15 26/29/16 40/40/16 38/39/15 
f 26/29/16 27/30/17 41/41/17 40/40/16 
f 27/30/17 28/31/18 42/42/18 41/41/17 
f 28/31/18 29/32/19 43/43/19 42/42/18 
f 29/34/19 30/33/20 44/44/20 43/45/19 
f 30/33/20 22/25/12 32/36/12 44/44/20 
f 32/36/12 31/35/11 45/46/11 46/47/12 
f 31/35/11 33/37/23 47/48/21 45/46/11 
f 33/37/23 39/38/28 48/49/22 47/48/21 
f 39/38/28 38/39/15 49/50/15 48/49/22 
f 38/39/15 40/40/16 50/51/16 49/50/15 
f 40/40/16 41/41/17 51/52/17 50/51/16 
f 41/41/17 42/42/18 52/53/18 51/52/17 
f 42/42/18 43/43/19 53/54/19 52/53/18 
f 43/45/19 44/44/20 54/55/20 53/56/19 
f 44/44/20 32/36/12 46/47/12 54/55/20 
f 46/47/12 45/46/11 55/57/29 56/58/30 
f 45/46/11 47/48/21 57/59/31 55/57/29 
f 58/48/24 59/49/25 60/60/26 61/59/27 
f 48/49/22 49/50/15 62/61/32 63/60/33 
f 49/50/15 50/51/16 64/62/34 62/61/32 
f 50/51/16 51/52/17 65/63/35 64/62/34 
f 51/52/17 52/53/18 66/64/36 65/63/35 
f 52/53/18 53/54/19 67/65/37 66/64/36 
f 53/56/19 54/55/20 68/66/38 67/67/37 
f 54/55/20 46/47/12 56/58/30 68/66/38 
s 1
f 68/66/38 56/58/30 55/57/29 57/59/31 63/60/33 62/61/32 64/62/34 65/63/35 66/64/36 67/65/37 
s off
f 23/26/21 24/27/22 35/27/25 34/26/24 
f 24/27/22 39/38/28 36/38/26 35/27/25 
f 39/38/28 33/37/23 37/37/27 36/38/26 
f 33/37/23 23/26/21 34/26/24 37/37/27 
f 47/48/21 48/49/22 59/49/25 58/48/24 
f 48/49/22 63/60/33 60/60/26 59/49/25 
f 63/60/33 57/59/31 61/59/27 60/60/26 
f 57/59/31 47/48/21 58/48/24 61/59/27 
s 1
f 69/68/39 70/69/40 71/70/41 72/71/42 
f 72/71/42 71/70/41 73/72/43 74/73/44 
f 74/73/44 73/72/43 75/74/45 76/75/46 
f 76/75/46 75/74/45 77/76/47 78/77/48 
f 78/77/48 77/76/47 79/78/49 80/79/50 
f 80/79/50 79/78/49 81/80/51 82/81/52 
f 82/81/52 81/80/51 83/82/53 84/83/54 
f 84/83/54 83/82/53 85/84/55 86/85/56 
f 86/85/56 85/84/55 87/86/57 88/87/58 
f 88/87/58 87/86/57 89/88/59 90/89/60 
f 90/89/60 89/88/59 91/90/61 92/91/62 
f 92/91/62 91/90/61 93/92/63 94/93/64 
f 94/93/64 93/92/63 95/94/65 96/95/66 
f 96/95/66 95/94/65 97/96/67 98/97/68 
f 98/97/68 97/96/67 99/98/69 100/99/70 
f 100/99/70 99/98/69 101/100/71 102/101/72 
f 102/101/72 101/100/71 103/102/73 104/103/74 
f 104/103/74 103/102/73 105/104/75 106/105/76 
f 106/105/76 105/104/75 107/106/77 108/107/78 
f 108/107/78 107/106/77 70/108/40 69/109/39 
f 70/69/40 109/110/79 110/111/80 71/70/41 
f 71/70/41 110/111/80 111/112/81 73/72/43 
f 73/72/43 111/112/81 112/113/82 75/74/45 
f 75/74/45 112/113/82 113/114/83 77/76/47 
f 77/76/47 113/114/83 114/115/84 79/78/49 
f 79/78/49 114/115/84 115/116/85 81/80/51 
f 81/80/51 115/116/85 116/117/86 83/82/53 
f 83/82/53 116/117/86 117/118/87 85/84/55 
f 85/84/55 117/118/87 118/119/88 87/86/57 
f 87/86/57 118/119/88 119/120/89 89/88/59 
f 89/88/59 119/120/89 120/121/90 91/90/61 
f 91/90/61 120/121/90 121/122/91 93/92/63 
f 93/92/63 121/122/91 122/123/92 95/94/65 
f 95/94/65 122/123/92 123/124/93 97/96/67 
f 97/96/67 123/124/93 124/125/94 99/98/69 
f 99/98/69 124/125/94 125/126/95 101/100/71 
f 101/100/71 125/126/95 126/127/96 103/102/73 
f 103/102/73 126/127/96 127/128/97 105/104/75 
f 105/104/75 127/128/97 128/129/98 107/106/77 
f 107/106/77 128/129/98 109/130/79 70/108/40 
s off
f 109/110/79 128/129/98 127/128/97 126/127/96 125/126/95 124/125/94 123/124/93 122/123/92 121/122/91 120/121/90 119/120/89 118/119/88 117/118/87 116/117/86 115/116/85 114/115/84 113/114/83 112/113/82 111/112/81 110/111/80 
f 72/71/42 74/73/44 76/75/46 78/77/48 80/79/50 82/81/52 84/83/54 86/85/56 88/87/58 90/89/60 92/91/62 94/93/64 96/95/66 98/97/68 100/99/70 102/101/72 104/103/74 106/105/76 108/107/78 69/109/39 
# 102 polygons

